<?xml version="1.0" encoding="utf-8"?>
<!-- Generator: Adobe Illustrator 15.1.0, SVG Export Plug-In . SVG Version: 6.00 Build 0)  -->
<!DOCTYPE svg PUBLIC "-//W3C//DTD SVG 1.1//EN" "http://www.w3.org/Graphics/SVG/1.1/DTD/svg11.dtd">
<svg version="1.1" id="Capa_1" xmlns="http://www.w3.org/2000/svg" xmlns:xlink="http://www.w3.org/1999/xlink" x="0px" y="0px"
	 width="46px" height="36.482px" viewBox="6 4.759 46 36.482" enable-background="new 6 4.759 46 36.482" xml:space="preserve">
<g>
	<path d="M51.207,4.759H6.793C6.355,4.759,6,5.113,6,5.552v34.896c0,0.438,0.355,0.793,0.793,0.793h44.414
		c0.438,0,0.793-0.354,0.793-0.793V5.552C52,5.113,51.645,4.759,51.207,4.759z M50.414,39.655H7.586V6.345h42.828V39.655z"/>
	<path d="M18.689,22.316c2.436,0,4.417-1.981,4.417-4.416c0-2.437-1.981-4.417-4.417-4.417c-2.436,0-4.417,1.981-4.417,4.417
		S16.254,22.316,18.689,22.316z M18.689,15.069c1.561,0,2.831,1.271,2.831,2.831s-1.27,2.831-2.831,2.831
		c-1.561,0-2.831-1.27-2.831-2.83S17.129,15.069,18.689,15.069z"/>
	<path d="M11.552,36.482c0.186,0,0.373-0.064,0.523-0.197l12.938-11.391l8.17,8.17c0.311,0.311,0.812,0.311,1.121,0
		c0.311-0.311,0.311-0.812,0-1.121l-3.813-3.813l7.281-7.974l8.932,8.187c0.322,0.296,0.825,0.273,1.121-0.049
		c0.295-0.322,0.273-0.825-0.049-1.121L38.26,18.45c-0.156-0.142-0.363-0.213-0.571-0.208c-0.21,0.01-0.409,0.103-0.55,0.258
		l-7.768,8.508l-3.762-3.762c-0.297-0.296-0.771-0.311-1.085-0.035L11.027,35.094c-0.329,0.29-0.361,0.791-0.071,1.12
		C11.113,36.393,11.332,36.482,11.552,36.482z"/>
</g>
</svg>
