<?xml version="1.0" ?><svg height="24px" version="1.1" viewBox="0 0 24 24" width="24px" xmlns="http://www.w3.org/2000/svg" xmlns:sketch="http://www.bohemiancoding.com/sketch/ns" xmlns:xlink="http://www.w3.org/1999/xlink"><title/><desc/><defs/><g fill="none" fill-rule="evenodd" id="Page-1" stroke="none" stroke-width="1"><g id="users_user_group_community_forum"><path d="M7,13.8666667 C8.71821922,13.8666667 10.1111111,12.5533686 10.1111111,10.9333333 C10.1111111,9.31329807 8.71821922,8 7,8 C5.28178078,8 3.88888889,9.31329807 3.88888889,10.9333333 C3.88888889,12.5533686 5.28178078,13.8666667 7,13.8666667 Z M7,14.6 C0,14.6 0,17.9 0,17.9 L0,19 L14,19 L14,17.9 C14,17.9 14,14.6 7,14.6 Z" fill="#2C3E50" id="Oval-205"/><path d="M17,13.8666667 C18.7182192,13.8666667 20.1111111,12.5533686 20.1111111,10.9333333 C20.1111111,9.31329807 18.7182192,8 17,8 C15.2817808,8 13.8888889,9.31329807 13.8888889,10.9333333 C13.8888889,12.5533686 15.2817808,13.8666667 17,13.8666667 Z M17,14.6 C10,14.6 10,17.9 10,17.9 L10,19 L24,19 L24,17.9 C24,17.9 24,14.6 17,14.6 Z" fill="#2C3E50" id="Oval-206"/><path d="M12,13 C14.209139,13 16,11.209139 16,9 C16,6.790861 14.209139,5 12,5 C9.790861,5 8,6.790861 8,9 C8,11.209139 9.790861,13 12,13 Z M12,14 C3,14 3,18.5 3,18.5 L3,20 L21,20 L21,18.5 C21,18.5 21,14 12,14 Z" fill="#3498DB" id="Oval-204"/></g></g></svg>