<?xml version="1.0" ?><svg height="24px" version="1.1" viewBox="0 0 24 24" width="24px" xmlns="http://www.w3.org/2000/svg" xmlns:sketch="http://www.bohemiancoding.com/sketch/ns" xmlns:xlink="http://www.w3.org/1999/xlink"><title/><defs/><g fill="none" fill-rule="evenodd" id="Page-1" stroke="none" stroke-width="1"><g id="editor_document_file_edit_pen_pencil-2"><path d="M2.06497116,0 L2.06497116,20 L12.0649712,20 L16.0649712,16 L16.0649712,0 L2.06497116,0 Z" fill="#3498DB" id="Rectangle-42" transform="translate(9.064971, 10.000000) scale(1, -1) translate(-9.064971, -10.000000) "/><path d="M12.0649712,0 L12.0649712,4 L16.0649712,0 L12.0649712,0 Z" fill="#000000" fill-opacity="0.300000012" id="Rectangle-41" transform="translate(14.064971, 2.000000) scale(1, -1) translate(-14.064971, -2.000000) "/><g id="pen" transform="translate(15.414214, 12.500000) rotate(45.000000) translate(-15.414214, -12.500000) translate(13.414214, 4.000000)"><path d="M2.41421356,-0.414213562 C0.414213562,-0.414213562 0.414213562,1.58578644 0.414213562,1.58578644 L0.414213562,13.5857864 L2.41421356,16.5857864 L4.41421356,13.5857864 L4.41421356,1.58578644 C4.41421356,1.58578644 4.41421356,-0.414213562 2.41421356,-0.414213562 Z" fill="#34495E" id="pencil_schoole_edit-3"/><rect fill="#ECF0F1" height="1" id="Rectangle" width="4" x="0.414213562" y="1.58578644"/></g></g></g></svg>