<?xml version="1.0" encoding="utf-8"?>
<!-- Generator: Adobe Illustrator 15.1.0, SVG Export Plug-In . SVG Version: 6.00 Build 0)  -->
<!DOCTYPE svg PUBLIC "-//W3C//DTD SVG 1.1//EN" "http://www.w3.org/Graphics/SVG/1.1/DTD/svg11.dtd">
<svg version="1.1" id="Layer_1" xmlns:sketch="http://www.bohemiancoding.com/sketch/ns"
	 xmlns="http://www.w3.org/2000/svg" xmlns:xlink="http://www.w3.org/1999/xlink" x="0px" y="0px" width="128px" height="128px"
	 viewBox="-48 -48 128 128" enable-background="new -48 -48 128 128" xml:space="preserve">
<title></title>
<desc></desc>
<g id="Page-1">
	<g id="icon-81-document-add">
		<path id="document-add" fill="#3498DB" d="M37.725,53.432V40.396h4.344v13.035h13.035v4.344H42.068v13.035h-4.344V57.775H24.689
			v-4.344H37.725L37.725,53.432z M16.096,70.811h-39.209c-4.808,0-8.679-3.903-8.679-8.724v-99.866c0-4.818,3.908-8.721,8.726-8.721
			h43.412v26.077c0,4.829,3.903,8.682,8.716,8.682h21.698v41.267c-3.344-1.391-7.014-2.164-10.862-2.164
			c-15.598,0-28.241,12.645-28.241,28.242C11.655,61.204,13.284,66.424,16.096,70.811L16.096,70.811L16.096,70.811z M24.689-46.5
			v26.056c0,2.406,1.961,4.357,4.303,4.357h21.767L24.689-46.5L24.689-46.5z M39.896,79.5c13.195,0,23.896-10.701,23.896-23.896
			S53.092,31.707,39.896,31.707S16,42.408,16,55.604S26.701,79.5,39.896,79.5L39.896,79.5z"/>
	</g>
</g>
</svg>
