<?xml version="1.0" encoding="utf-8"?>
<!-- Generator: Adobe Illustrator 15.1.0, SVG Export Plug-In . SVG Version: 6.00 Build 0)  -->
<!DOCTYPE svg PUBLIC "-//W3C//DTD SVG 1.1//EN" "http://www.w3.org/Graphics/SVG/1.1/DTD/svg11.dtd">
<svg version="1.1" id="MagnifyingGlass" xmlns="http://www.w3.org/2000/svg" xmlns:xlink="http://www.w3.org/1999/xlink" x="0px"
	 y="0px" width="16px" height="16px" viewBox="0 0 16 16" style="enable-background:new 0 0 16 16;" xml:space="preserve">
<path style="fill:#4F4F4F;" d="M15.7,12.6L12,9.2c0.4-0.9,0.7-1.8,0.7-2.8C12.6,2.8,9.8,0,6.3,0C2.8,0,0,2.8,0,6.3
	c0,3.5,2.8,6.3,6.3,6.3c1,0,2-0.2,2.8-0.7l3.5,3.8c0.3,0.4,0.9,0.4,1.3,0l1.9-1.9C16.1,13.5,16.1,13,15.7,12.6z M6.3,10.2
	c-2.1,0-3.9-1.7-3.9-3.9s1.7-3.9,3.9-3.9c2.1,0,3.9,1.7,3.9,3.9S8.4,10.2,6.3,10.2z"/>
</svg>
