<?xml version="1.0" encoding="utf-8"?>
<!-- Generator: Adobe Illustrator 15.1.0, SVG Export Plug-In . SVG Version: 6.00 Build 0)  -->
<!DOCTYPE svg PUBLIC "-//W3C//DTD SVG 1.1//EN" "http://www.w3.org/Graphics/SVG/1.1/DTD/svg11.dtd">
<svg version="1.1" id="Layer_1" xmlns="http://www.w3.org/2000/svg" xmlns:xlink="http://www.w3.org/1999/xlink" x="0px" y="0px"
	 width="117.417px" height="119.341px" viewBox="5.292 4.328 117.417 119.341" enable-background="new 5.292 4.328 117.417 119.341"
	 xml:space="preserve">
<path fill="#3396CC" d="M114.046,88.08l-8.911-9.447c0.053-0.151,0.1-0.304,0.152-0.457c0.022-0.062,0.042-0.125,0.063-0.186
	c0.219-0.647,0.421-1.295,0.607-1.948c0.01-0.034,0.019-0.068,0.029-0.103c0.193-0.681,0.369-1.365,0.527-2.054
	c0.009-0.029,0.015-0.06,0.021-0.089c0.155-0.682,0.297-1.365,0.419-2.053c0.006-0.035,0.015-0.068,0.021-0.104
	c0.007-0.038,0.012-0.077,0.019-0.115c0.026-0.149,0.058-0.301,0.082-0.451c0.003-0.027,0.01-0.055,0.015-0.083
	c0.048-0.3,0.088-0.6,0.131-0.901c0.024-0.186,0.048-0.371,0.072-0.557c0.046-0.369,0.097-0.738,0.135-1.108
	c0.002-0.038,0.003-0.078,0.008-0.115c0.012-0.108,0.02-0.22,0.031-0.327c0.019-0.196,0.03-0.395,0.045-0.592
	c0.004-0.043,0.007-0.087,0.01-0.129c0.002-0.023,0.004-0.05,0.006-0.073c0.007-0.1,0.017-0.2,0.023-0.299
	c0.008-0.124,0.022-0.246,0.028-0.369c0.004-0.064,0.005-0.128,0.011-0.19c0.002-0.07,0.003-0.142,0.006-0.211
	c0.026-0.511,0.046-1.021,0.053-1.529c0-0.044,0.006-0.088,0.006-0.133l11.638-5.805c2.69-0.974,4.079-3.944,3.104-6.633
	l-5.881-16.229c-0.975-2.689-3.945-4.079-6.633-3.104l-12.657,2.998c-0.055-0.065-0.117-0.125-0.174-0.188
	c-0.026-0.03-0.051-0.06-0.077-0.089c-0.13-0.15-0.265-0.296-0.397-0.445c-0.145-0.163-0.289-0.324-0.436-0.481
	c-0.12-0.13-0.242-0.257-0.362-0.385c-0.056-0.061-0.114-0.121-0.17-0.181c-0.101-0.104-0.195-0.212-0.296-0.315
	c-0.055-0.057-0.109-0.114-0.165-0.171c-0.14-0.142-0.281-0.279-0.423-0.42c-0.036-0.035-0.071-0.071-0.107-0.106
	c-0.062-0.061-0.124-0.122-0.186-0.182c-0.207-0.202-0.415-0.402-0.625-0.6c-0.023-0.021-0.049-0.043-0.071-0.065
	c-0.346-0.321-0.694-0.639-1.05-0.949c-0.09-0.079-0.181-0.154-0.271-0.232c-0.767-0.658-1.552-1.291-2.361-1.894
	c-0.017-0.012-0.032-0.023-0.049-0.034c-1.051-0.781-2.14-1.515-3.267-2.204c-0.031-0.019-0.063-0.037-0.094-0.057
	c-0.143-0.087-0.285-0.18-0.43-0.267l0.792-12.983c0.502-2.815-1.374-5.505-4.191-6.006L65.824,4.409
	c-2.816-0.501-5.504,1.376-6.005,4.193l-3.732,12.461c-0.073,0.013-0.145,0.031-0.218,0.044c-0.085,0.017-0.171,0.035-0.257,0.053
	c-0.502,0.099-1,0.204-1.496,0.32c-0.089,0.019-0.179,0.043-0.267,0.064c-0.45,0.108-0.899,0.221-1.345,0.342
	c-0.047,0.013-0.094,0.027-0.141,0.04c-0.059,0.016-0.118,0.031-0.176,0.047c-0.164,0.046-0.327,0.094-0.49,0.143
	c-0.376,0.111-0.75,0.227-1.121,0.349c-0.27,0.087-0.541,0.172-0.81,0.263c-0.17,0.059-0.338,0.125-0.508,0.185
	c-0.012,0.004-0.026,0.01-0.039,0.014c-0.031,0.012-0.063,0.018-0.095,0.03c-0.055,0.02-0.107,0.045-0.162,0.064
	c-0.614,0.224-1.222,0.462-1.825,0.714c-0.069,0.028-0.137,0.057-0.205,0.086c-0.069,0.029-0.14,0.058-0.21,0.087
	c-0.02,0.01-0.041,0.017-0.06,0.025c-0.517,0.224-1.029,0.458-1.539,0.702c-0.071,0.034-0.143,0.068-0.214,0.104
	c-0.57,0.276-1.136,0.567-1.695,0.869c-0.097,0.052-0.194,0.104-0.29,0.158c-0.123,0.068-0.248,0.13-0.37,0.2l-10.833-7.167
	c-2.188-1.842-5.456-1.561-7.298,0.628L13.31,32.633c-1.843,2.19-1.56,5.457,0.627,7.298l8.913,9.448
	c-0.042,0.12-0.079,0.241-0.121,0.361c-0.047,0.137-0.092,0.272-0.137,0.41c-0.19,0.57-0.37,1.14-0.535,1.713
	c-0.033,0.113-0.063,0.225-0.096,0.339c-0.144,0.514-0.28,1.03-0.405,1.547c-0.009,0.04-0.019,0.081-0.028,0.121
	c-0.011,0.043-0.02,0.088-0.031,0.132c-0.027,0.114-0.053,0.229-0.079,0.344c-0.134,0.591-0.255,1.185-0.362,1.779
	c-0.016,0.083-0.036,0.163-0.051,0.247c-0.016,0.09-0.028,0.183-0.044,0.273c-0.012,0.066-0.024,0.133-0.035,0.199
	c-0.013,0.072-0.027,0.143-0.039,0.216c-0.039,0.244-0.072,0.49-0.106,0.735c-0.046,0.317-0.085,0.636-0.124,0.953
	c-0.033,0.267-0.068,0.533-0.096,0.801c-0.004,0.037-0.008,0.076-0.013,0.114c-0.013,0.133-0.025,0.266-0.037,0.397
	c-0.017,0.171-0.026,0.342-0.041,0.512c-0.031,0.385-0.062,0.77-0.082,1.153c-0.001,0.006,0,0.012-0.001,0.017
	c-0.031,0.573-0.05,1.144-0.057,1.715c-0.001,0.032-0.005,0.064-0.005,0.099l-11.62,5.798c-2.69,0.974-4.079,3.943-3.104,6.633
	l5.88,16.229c0.975,2.689,3.945,4.079,6.633,3.104l12.636-2.99c0.069,0.081,0.145,0.152,0.214,0.231
	c0.012,0.016,0.025,0.027,0.038,0.04c0,0.002,0.001,0.002,0.001,0.004c0.108,0.125,0.221,0.246,0.331,0.371
	c0.173,0.194,0.345,0.388,0.521,0.578c0.102,0.111,0.206,0.219,0.309,0.331c0.136,0.144,0.271,0.29,0.409,0.434
	c0.015,0.016,0.029,0.029,0.043,0.047c0.065,0.067,0.128,0.134,0.195,0.201c0.16,0.161,0.323,0.319,0.485,0.479
	c0.014,0.016,0.028,0.027,0.042,0.041c0.064,0.063,0.127,0.127,0.191,0.188c0.566,0.555,1.147,1.095,1.746,1.618
	c0.104,0.091,0.209,0.179,0.315,0.267c0.751,0.646,1.525,1.268,2.321,1.863c0.027,0.021,0.055,0.04,0.082,0.061
	c1.208,0.895,2.463,1.738,3.768,2.511l-0.79,12.966c-0.5,2.814,1.376,5.505,4.192,6.006l16.995,3.021
	c2.816,0.5,5.504-1.376,6.005-4.193l3.729-12.445c0.075-0.015,0.15-0.032,0.228-0.047c0.075-0.014,0.151-0.031,0.228-0.047
	c0.505-0.099,1.01-0.205,1.511-0.32c0.099-0.022,0.196-0.049,0.295-0.071c0.447-0.109,0.894-0.221,1.336-0.341
	c0.042-0.013,0.084-0.025,0.125-0.037c0.005-0.002,0.009-0.003,0.013-0.004c0.046-0.013,0.096-0.022,0.143-0.038
	c0.175-0.05,0.349-0.1,0.522-0.151c0.369-0.108,0.734-0.224,1.099-0.342c0.278-0.09,0.557-0.176,0.831-0.27
	c0.142-0.048,0.28-0.103,0.421-0.153c0.047-0.017,0.095-0.035,0.141-0.052c0.023-0.009,0.049-0.014,0.072-0.023
	c0.04-0.014,0.079-0.031,0.12-0.046c0.64-0.232,1.272-0.48,1.9-0.743c0.046-0.02,0.092-0.04,0.137-0.057
	c0.099-0.044,0.197-0.081,0.294-0.125c0.531-0.228,1.06-0.47,1.584-0.722c0.052-0.023,0.102-0.049,0.153-0.074
	c0.59-0.287,1.177-0.586,1.755-0.9c0.078-0.041,0.157-0.083,0.234-0.125c0.13-0.074,0.265-0.142,0.396-0.215l10.832,7.166
	c2.19,1.842,5.457,1.56,7.298-0.629l11.113-13.207C116.515,93.188,116.234,89.921,114.046,88.08z M60.847,81.735
	c-9.794-1.741-16.324-11.093-14.582-20.888c1.741-9.796,11.093-16.325,20.888-14.583c9.794,1.741,16.323,11.094,14.582,20.889
	C79.994,76.947,70.641,83.477,60.847,81.735z"/>
</svg>
