<?xml version="1.0" encoding="utf-8"?>
<!-- Generator: Adobe Illustrator 15.1.0, SVG Export Plug-In . SVG Version: 6.00 Build 0)  -->
<!DOCTYPE svg PUBLIC "-//W3C//DTD SVG 1.1//EN" "http://www.w3.org/Graphics/SVG/1.1/DTD/svg11.dtd">
<svg version="1.1" id="Capa_1" xmlns="http://www.w3.org/2000/svg" xmlns:xlink="http://www.w3.org/1999/xlink" x="0px" y="0px"
	 width="20px" height="20px" viewBox="0 0 20 20" enable-background="new 0 0 20 20" xml:space="preserve">
<g>
	<g>
		<path fill="#477DD6" d="M10.001,5.352c-1.475,0-2.667-1.197-2.667-2.676C7.334,1.198,8.526,0,10.001,0
			c1.471,0,2.665,1.197,2.665,2.676C12.665,4.153,11.472,5.352,10.001,5.352z"/>
		<path fill="#477DD6" d="M10.001,12.676c-1.475,0-2.667-1.197-2.667-2.676c0-1.478,1.192-2.676,2.667-2.676
			c1.471,0,2.665,1.198,2.666,2.676C12.665,11.479,11.471,12.676,10.001,12.676z"/>
		<path fill="#477DD6" d="M10.001,20c-1.475,0-2.667-1.197-2.667-2.676s1.192-2.676,2.667-2.676
			c1.471-0.001,2.665,1.197,2.665,2.676S11.471,20,10.001,20z"/>
	</g>
</g>
</svg>
